<svg viewBox="0 0 500 500" xmlns="http://www.w3.org/2000/svg" xmlns:xlink="http://www.w3.org/1999/xlink" width="100%" id="blobSvg">
  <path id="blob" d="M428,280.5Q428,311,432,353Q436,395,399,408Q362,421,329,425.5Q296,430,265.5,432.5Q235,435,193,455Q151,475,140.5,427.5Q130,380,104,361.5Q78,343,49,315.5Q20,288,13.5,248.5Q7,209,45.5,184.5Q84,160,100,132Q116,104,140,79.5Q164,55,197.5,40Q231,25,267,32.5Q303,40,343,43.5Q383,47,388,93Q393,139,417.5,161.5Q442,184,435,217Q428,250,428,280.5Z" fill="#d1d8e0"></path>
</svg>